<svg width="22" height="14" viewBox="0 0 22 14" fill="none" xmlns="http://www.w3.org/2000/svg">
<path d="M21.2532 6.72156C21.2231 6.65367 20.4952 5.03891 18.877 3.4207C16.7209 1.26453 13.9975 0.125 11 0.125C8.00249 0.125 5.27913 1.26453 3.12296 3.4207C1.50476 5.03891 0.773429 6.65625 0.746789 6.72156C0.707698 6.80949 0.6875 6.90464 0.6875 7.00086C0.6875 7.09708 0.707698 7.19223 0.746789 7.28016C0.776867 7.34805 1.50476 8.96195 3.12296 10.5802C5.27913 12.7355 8.00249 13.875 11 13.875C13.9975 13.875 16.7209 12.7355 18.877 10.5802C20.4952 8.96195 21.2231 7.34805 21.2532 7.28016C21.2923 7.19223 21.3125 7.09708 21.3125 7.00086C21.3125 6.90464 21.2923 6.80949 21.2532 6.72156ZM11 12.5C8.35484 12.5 6.04398 11.5384 4.13101 9.64258C3.34609 8.862 2.67831 7.97191 2.14843 7C2.67817 6.02799 3.34597 5.13789 4.13101 4.35742C6.04398 2.46164 8.35484 1.5 11 1.5C13.6451 1.5 15.956 2.46164 17.869 4.35742C18.6554 5.1377 19.3247 6.0278 19.8559 7C19.2362 8.15672 16.5369 12.5 11 12.5ZM11 2.875C10.1841 2.875 9.38662 3.11693 8.70826 3.57019C8.02991 4.02345 7.5012 4.66769 7.18899 5.42143C6.87678 6.17518 6.79509 7.00458 6.95425 7.80475C7.11342 8.60492 7.50628 9.33992 8.08318 9.91682C8.66007 10.4937 9.39507 10.8866 10.1952 11.0457C10.9954 11.2049 11.8248 11.1232 12.5786 10.811C13.3323 10.4988 13.9765 9.97008 14.4298 9.29173C14.8831 8.61337 15.125 7.81585 15.125 7C15.1239 5.90633 14.6889 4.85778 13.9156 4.08444C13.1422 3.3111 12.0937 2.87614 11 2.875ZM11 9.75C10.4561 9.75 9.92441 9.58872 9.47217 9.28654C9.01994 8.98437 8.66746 8.55488 8.45932 8.05238C8.25118 7.54988 8.19672 6.99695 8.30283 6.4635C8.40894 5.93005 8.67085 5.44005 9.05545 5.05546C9.44004 4.67086 9.93005 4.40895 10.4635 4.30284C10.9969 4.19673 11.5499 4.25119 12.0524 4.45933C12.5549 4.66747 12.9844 5.01995 13.2865 5.47218C13.5887 5.92442 13.75 6.4561 13.75 7C13.75 7.72935 13.4603 8.42882 12.9445 8.94454C12.4288 9.46027 11.7293 9.75 11 9.75Z" fill="url(#paint0_linear_11_869)"/>
<defs>
<linearGradient id="paint0_linear_11_869" x1="-2.92187" y1="11.4485" x2="24.4088" y2="-0.248157" gradientUnits="userSpaceOnUse">
<stop offset="0.0237305" stop-color="#79943E"/>
<stop offset="0.216904" stop-color="#F3EDA6"/>
<stop offset="0.329505" stop-color="#F8FAE5"/>
<stop offset="0.486109" stop-color="#FFE2BE"/>
<stop offset="0.723574" stop-color="#D5BE88"/>
<stop offset="0.809185" stop-color="#F8FAE5"/>
<stop offset="0.902849" stop-color="#D5BE88"/>
</linearGradient>
</defs>
</svg>
